<svg width="20" height="17" viewBox="0 0 20 17" fill="none" xmlns="http://www.w3.org/2000/svg">
<path d="M6.49222 15.397C6.64843 15.5517 6.90158 15.5517 7.05795 15.397C7.21416 15.2423 7.21416 14.9916 7.05795 14.8367L2.44217 10.266C1.38353 9.21756 0.800356 7.82325 0.800356 6.34056C0.800356 4.85753 1.38336 3.4636 2.44217 2.41515C4.62795 0.250843 8.18392 0.250843 10.3694 2.41515L18.1467 10.1172C19.5517 11.5089 19.5517 13.773 18.1467 15.1647C16.7415 16.5561 14.4551 16.5561 13.05 15.1647L4.80685 7.00117C4.18236 6.38271 4.18236 5.37624 4.80685 4.75774C5.43152 4.13945 6.44747 4.13945 7.07218 4.75774L14.1319 11.7488C14.2881 11.9035 14.5413 11.9035 14.6977 11.7488C14.8539 11.5941 14.8539 11.3434 14.6977 11.1886L7.63791 4.19748C6.70147 3.27009 5.17773 3.27043 4.24129 4.19748C3.30485 5.12487 3.30485 6.63387 4.24129 7.56126L12.4845 15.7248C13.343 16.5752 14.4705 17.0002 15.5983 17C16.7259 17 17.8539 16.5748 18.7123 15.7248C20.4292 14.0244 20.4292 11.2576 18.7123 9.55714L10.935 1.85506C8.43732 -0.618353 4.37331 -0.618353 1.87618 1.85506C0.666199 3.05305 0 4.64615 0 6.3409C0 8.03532 0.666199 9.62824 1.87618 10.8267L6.49222 15.397Z" fill="black"/>
</svg>
